<?xml version="1.0" encoding="utf-8"?>
<!-- Generator: Adobe Illustrator 16.0.0, SVG Export Plug-In . SVG Version: 6.00 Build 0)  -->
<!DOCTYPE svg PUBLIC "-//W3C//DTD SVG 1.1//EN" "http://www.w3.org/Graphics/SVG/1.1/DTD/svg11.dtd">
<svg version="1.1" id="Layer_1" xmlns="http://www.w3.org/2000/svg" xmlns:xlink="http://www.w3.org/1999/xlink" x="0px" y="0px"
	 width="792px" height="612px" viewBox="0 0 792 612" enable-background="new 0 0 792 612" xml:space="preserve">
<path id="weirdShape" fill="#FFFFFF" stroke="#231F20" stroke-miterlimit="10" d="M125,92c41.58-35.343,122-68,137-33s35,178,58,159
	s81-58,79,12s-142,140-164,87s14-126-33-130s-100-27-98-42S105,109,125,92z"/>
<path id="square" fill="#FFFFFF" stroke="#231F20" stroke-miterlimit="10" d="M530,163c0,6.627-5.373,12-12,12h-90
	c-6.627,0-12-5.373-12-12V90c0-6.627,5.373-12,12-12h90c6.627,0,12,5.373,12,12V163z"/>
</svg>
